<?xml version="1.0" standalone="no"?>
<!DOCTYPE svg PUBLIC "-//W3C//DTD SVG 20010904//EN" "http://www.w3.org/TR/2001/REC-SVG-20010904/DTD/svg10.dtd">
<svg version="1.0" xmlns="http://www.w3.org/2000/svg" width="172px" height="93px" viewBox="630 410 1720 930" preserveAspectRatio="xMidYMid meet">
<g transform="translate(0.000000,1536.000000) scale(0.100000,-0.100000)" fill="#f43f5e" stroke="none">
<path d="M20488 10058 c-23 -20 -379 -498 -387 -522 -11 -32 -2 -56 25 -67 14
-5 97 -9 184 -9 87 0 161 -4 164 -9 4 -5 -1 -38 -9 -73 -19 -80 -19 -156 0
-236 21 -87 55 -150 122 -223 114 -123 237 -179 392 -179 99 0 168 16 240 55
28 16 53 26 55 24 2 -2 20 -65 40 -139 47 -171 62 -204 99 -208 18 -2 37 4 49
15 22 19 325 410 371 478 33 48 34 79 5 99 -18 13 -55 16 -190 16 -92 0 -169
3 -171 8 -3 4 2 43 11 86 27 139 -11 287 -102 391 l-34 40 14 -55 c59 -228
-99 -442 -316 -427 -141 9 -240 107 -240 237 0 140 108 231 236 199 94 -24
145 -136 88 -193 -26 -27 -44 -20 -44 17 0 44 -24 75 -64 82 -72 14 -135 -54
-120 -131 13 -72 73 -115 159 -115 63 0 101 17 144 66 71 81 82 189 30 293
-34 69 -77 109 -159 150 -50 25 -65 27 -170 27 -104 0 -121 -3 -172 -27 -42
-19 -60 -24 -65 -15 -4 7 -27 79 -50 160 -23 82 -49 159 -57 173 -18 26 -53
32 -78 12z"/>
<path d="M13950 9831 c-111 -36 -162 -108 -162 -231 0 -196 116 -355 337 -461
127 -62 239 -82 420 -76 175 6 256 24 385 88 300 148 425 532 213 656 -40 23
-59 27 -119 27 -62 0 -78 -4 -120 -30 -42 -25 -52 -39 -72 -89 -57 -148 -84
-185 -169 -226 -41 -21 -63 -24 -153 -24 -98 0 -109 2 -160 30 -64 35 -111 94
-135 167 -30 93 -46 118 -91 144 -46 27 -131 39 -174 25z"/>
<path d="M19377 8815 c-425 -69 -796 -368 -938 -756 -50 -137 -69 -240 -75
-404 -13 -341 77 -606 290 -857 138 -164 370 -305 582 -354 162 -37 366 -35
528 6 164 41 341 152 436 271 44 55 46 54 53 -32 10 -109 79 -201 176 -234 59
-20 175 -19 237 2 68 23 145 101 170 173 18 51 19 89 19 580 0 462 -3 536 -18
620 -95 501 -436 858 -927 971 -115 27 -408 34 -533 14z m430 -585 c182 -63
335 -232 387 -425 26 -94 31 -246 12 -335 -46 -219 -212 -404 -414 -464 -140
-41 -308 -25 -442 40 -106 52 -223 170 -274 276 -53 110 -69 198 -63 338 8
186 58 303 181 425 79 78 178 136 272 160 85 21 259 14 341 -15z"/>
<path d="M7398 8807 c-175 -50 -258 -239 -173 -395 14 -26 154 -204 310 -397
212 -262 281 -353 275 -365 -11 -20 -395 -499 -532 -664 -124 -148 -143 -190
-136 -295 6 -82 33 -136 93 -189 64 -56 127 -75 229 -70 67 3 91 10 142 37 34
18 77 49 96 69 39 41 231 288 484 624 107 142 172 220 187 223 12 3 52 5 87 3
l65 -3 5 -360 c5 -353 5 -361 29 -413 29 -65 104 -134 168 -156 27 -9 80 -16
127 -16 139 0 226 56 285 180 l26 55 0 355 0 355 82 0 c73 0 84 -3 108 -25 15
-14 148 -180 295 -370 344 -442 372 -476 428 -511 64 -41 114 -52 208 -47 67
4 90 10 135 35 61 34 113 95 129 151 16 61 12 162 -10 210 -11 23 -61 94 -112
156 -127 154 -489 604 -517 643 l-24 32 34 43 c19 24 148 185 288 358 140 173
265 338 277 365 48 102 23 236 -57 312 -96 91 -263 106 -376 35 -33 -20 -113
-117 -315 -377 -149 -192 -296 -381 -326 -418 l-53 -68 -97 3 -97 3 -5 345
c-5 325 -6 348 -26 390 -29 61 -78 108 -144 139 -79 37 -201 37 -280 0 -70
-32 -116 -79 -149 -149 l-26 -55 -3 -337 -3 -338 -90 0 c-86 0 -92 1 -117 28
-15 15 -148 187 -297 382 -148 195 -289 375 -313 401 -24 27 -64 56 -93 68
-63 27 -159 35 -221 18z"/>
<path d="M10985 8806 c-85 -27 -154 -83 -189 -154 -27 -54 -39 -137 -27 -194
11 -48 165 -410 306 -718 87 -189 153 -337 320 -715 76 -170 160 -359 188
-419 l51 -108 -23 -67 c-37 -105 -107 -241 -156 -304 -87 -110 -166 -147 -315
-147 -154 0 -244 -47 -291 -152 -31 -71 -33 -183 -3 -248 62 -136 222 -196
450 -171 286 32 502 168 671 421 78 117 166 306 329 709 109 266 396 964 606
1470 l180 434 -4 87 c-3 71 -9 95 -30 131 -62 104 -148 153 -268 153 -161 -1
-235 -65 -319 -275 -79 -198 -427 -1099 -468 -1212 -20 -54 -40 -94 -44 -90
-4 4 -30 64 -57 133 -27 69 -74 184 -104 255 -31 72 -97 229 -148 350 -134
319 -269 633 -296 686 -63 125 -220 189 -359 145z"/>
<path d="M13667 8810 c-102 -18 -177 -75 -221 -169 -21 -46 -21 -55 -24 -986
-3 -1009 -3 -1021 47 -1096 58 -86 145 -123 279 -117 103 4 172 32 241 100 41
41 219 263 477 598 248 321 487 626 508 647 l21 23 -3 -541 c-3 -589 -1 -613
54 -706 27 -46 88 -93 146 -112 55 -18 168 -16 229 4 73 24 149 101 175 175
18 53 19 95 17 997 -2 1078 4 1007 -87 1099 -66 65 -129 88 -241 88 -66 0 -91
-5 -140 -28 -33 -15 -71 -37 -84 -49 -27 -26 -189 -227 -387 -482 -77 -99
-239 -306 -359 -460 -120 -154 -227 -295 -239 -312 -12 -18 -24 -33 -28 -33
-5 0 -8 249 -8 553 0 619 0 617 -69 704 -42 54 -102 88 -181 103 -58 11 -55
11 -123 0z"/>
<path d="M16400 8814 c-104 -20 -191 -78 -230 -155 -39 -75 -41 -132 -38
-1079 l3 -915 24 -53 c29 -65 104 -134 168 -156 26 -9 79 -16 119 -16 170 0
284 91 314 250 5 29 10 198 10 376 l0 324 89 0 c82 0 92 -2 120 -26 17 -14 97
-112 178 -217 266 -347 495 -628 536 -658 114 -83 302 -78 409 11 20 17 49 56
65 88 23 47 28 70 27 127 -1 88 -21 130 -118 245 -168 197 -557 693 -554 705
2 8 127 167 278 355 151 188 289 365 305 393 27 46 30 61 30 132 0 90 -19 137
-77 192 -56 54 -121 78 -213 77 -97 0 -154 -23 -213 -83 -21 -22 -171 -210
-333 -417 -162 -207 -299 -382 -305 -390 -8 -10 -38 -14 -117 -14 l-106 0 -3
338 -3 337 -33 67 c-37 76 -85 121 -152 143 -50 16 -142 26 -180 19z"/>
</g>
</svg>
