<?xml version="1.0" standalone="no"?>
<!DOCTYPE svg PUBLIC "-//W3C//DTD SVG 20010904//EN"
 "http://www.w3.org/TR/2001/REC-SVG-20010904/DTD/svg10.dtd">
<svg version="1.0" xmlns="http://www.w3.org/2000/svg"
 width="2816.000000pt" height="1536.000000pt" viewBox="0 0 2816.000000 1536.000000"
 preserveAspectRatio="xMidYMid meet">

<g transform="translate(0.000000,1536.000000) scale(0.100000,-0.100000)"
fill="#f43f5e" stroke="none">
<path d="M26280 14780 c0 -11 4 -20 8 -20 4 0 8 9 8 20 0 11 -4 20 -8 20 -4 0
-8 -9 -8 -20z"/>
<path d="M26280 14725 c0 -8 5 -15 11 -15 5 0 8 4 5 9 -4 5 0 12 6 14 8 3 6 6
-4 6 -10 1 -18 -6 -18 -14z"/>
<path d="M26280 14690 c0 -5 5 -10 10 -10 6 0 10 5 10 10 0 6 -4 10 -10 10 -5
0 -10 -4 -10 -10z"/>
<path d="M26282 14540 c0 -14 2 -19 5 -12 2 6 2 18 0 25 -3 6 -5 1 -5 -13z"/>
<path d="M26282 14490 c0 -14 2 -19 5 -12 2 6 2 18 0 25 -3 6 -5 1 -5 -13z"/>
<path d="M26280 14429 c0 -24 4 -28 22 -26 12 2 24 9 26 15 2 7 -3 10 -12 6
-18 -7 -21 7 -6 22 6 6 3 10 -10 11 -16 1 -20 -4 -20 -28z"/>
<path d="M26280 14379 c0 -5 5 -7 10 -4 6 3 10 8 10 11 0 2 -4 4 -10 4 -5 0
-10 -5 -10 -11z"/>
<path d="M26286 14154 c1 -14 6 -29 10 -32 4 -4 4 1 1 11 -4 9 -2 17 3 17 6 0
10 7 10 15 0 8 -6 15 -14 15 -8 0 -12 -9 -10 -26z"/>
<path d="M26310 14100 c-24 -8 -23 -8 8 -9 17 -1 32 4 32 9 0 11 -5 11 -40 0z"/>
<path d="M26280 14070 c0 -5 5 -10 10 -10 6 0 10 5 10 10 0 6 -4 10 -10 10 -5
0 -10 -4 -10 -10z"/>
<path d="M26290 14004 c0 -8 5 -12 10 -9 6 3 10 10 10 16 0 5 -4 9 -10 9 -5 0
-10 -7 -10 -16z"/>
<path d="M26340 13870 c-8 -5 -12 -12 -9 -15 4 -3 12 1 19 10 14 17 11 19 -10
5z"/>
<path d="M26290 13845 c0 -8 2 -15 4 -15 2 0 6 7 10 15 3 8 1 15 -4 15 -6 0
-10 -7 -10 -15z"/>
<path d="M26337 13813 c-10 -9 -9 -23 1 -23 5 0 9 7 9 15 0 17 -1 18 -10 8z"/>
<path d="M26285 13729 c-9 -14 -2 -20 14 -10 8 6 9 11 3 15 -6 3 -14 1 -17 -5z"/>
<path d="M26308 13702 c-10 -2 -18 -10 -18 -18 0 -11 5 -12 18 -5 9 5 22 10
27 11 16 3 17 7 3 12 -7 2 -21 3 -30 0z"/>
<path d="M26295 13580 c3 -5 8 -10 11 -10 2 0 4 5 4 10 0 6 -5 10 -11 10 -5 0
-7 -4 -4 -10z"/>
<path d="M26297 13463 c-4 -3 -7 -11 -7 -17 0 -6 5 -5 12 2 6 6 9 14 7 17 -3
3 -9 2 -12 -2z"/>
<path d="M26290 13369 c0 -10 5 -19 10 -19 6 0 10 5 10 11 0 6 7 8 16 5 8 -3
13 -2 10 3 -3 5 -15 11 -26 14 -15 4 -20 0 -20 -14z"/>
<path d="M26330 13336 c0 -2 7 -7 16 -10 8 -3 12 -2 9 4 -6 10 -25 14 -25 6z"/>
<path d="M26290 13265 c0 -18 45 -21 56 -3 5 8 2 9 -9 5 -10 -3 -17 -2 -17 3
0 6 -7 10 -15 10 -8 0 -15 -7 -15 -15z"/>
<path d="M26285 13230 c-8 -13 4 -32 15 -25 4 3 10 -2 14 -10 7 -19 33 -9 48
19 9 18 9 19 -3 9 -11 -9 -19 -8 -33 3 -23 17 -33 18 -41 4z"/>
<path d="M26290 13176 c0 -14 29 -31 38 -21 6 6 -18 35 -29 35 -5 0 -9 -6 -9
-14z"/>
<path d="M26290 13126 c0 -12 6 -23 13 -23 18 0 19 34 1 41 -10 4 -14 -2 -14
-18z"/>
<path d="M26337 13143 c-4 -3 -7 -13 -7 -22 1 -13 3 -13 11 2 11 19 8 33 -4
20z"/>
<path d="M26290 13076 c0 -9 6 -16 13 -16 16 0 46 20 30 20 -6 0 -18 3 -27 6
-11 4 -16 1 -16 -10z"/>
<path d="M26290 13040 c0 -5 5 -10 11 -10 5 0 7 5 4 10 -3 6 -8 10 -11 10 -2
0 -4 -4 -4 -10z"/>
<path d="M26325 13020 c-3 -5 -1 -10 4 -10 6 0 11 5 11 10 0 6 -2 10 -4 10 -3
0 -8 -4 -11 -10z"/>
<path d="M26290 12999 c0 -5 5 -7 10 -4 6 3 10 8 10 11 0 2 -4 4 -10 4 -5 0
-10 -5 -10 -11z"/>
<path d="M26294 12968 c-3 -4 5 -5 17 -3 30 6 36 14 9 12 -12 -1 -24 -5 -26
-9z"/>
<path d="M26290 12935 c0 -8 4 -15 10 -15 5 0 7 7 4 15 -4 8 -8 15 -10 15 -2
0 -4 -7 -4 -15z"/>
<path d="M26290 12895 c0 -9 6 -12 15 -9 8 4 12 10 9 15 -8 14 -24 10 -24 -6z"/>
<path d="M26325 12861 c-11 -5 -22 -7 -25 -5 -3 1 -7 -6 -7 -17 -1 -10 5 -19
12 -19 9 0 12 6 9 15 -4 8 -1 15 5 15 6 0 11 -4 11 -10 0 -5 4 -10 9 -10 6 0
9 9 8 20 -1 11 -1 20 -2 19 0 0 -9 -4 -20 -8z"/>
<path d="M26294 12780 c0 -11 4 -20 8 -20 4 0 3 -12 -2 -26 -6 -14 -10 -26
-10 -27 0 -1 11 -2 24 -2 21 0 24 5 23 27 -1 14 -5 24 -9 22 -10 -7 -20 15
-12 27 4 8 9 7 15 -2 7 -11 9 -10 9 4 0 11 -8 17 -23 17 -16 0 -23 -6 -23 -20z"/>
<path d="M26293 12663 c0 -12 3 -23 8 -23 5 0 9 5 9 10 0 6 6 10 14 10 7 0 18
6 24 13 8 9 3 12 -23 13 -28 1 -32 -3 -32 -23z"/>
<path d="M26295 12613 c-8 -23 -6 -25 15 -18 24 8 27 -10 4 -23 -10 -6 -18
-26 -20 -51 -3 -37 -1 -41 19 -41 18 0 19 2 7 10 -13 8 -12 11 5 24 11 8 24
12 29 9 5 -4 6 -1 1 6 -4 7 -16 11 -26 8 -29 -8 -34 12 -6 22 14 6 28 14 31
20 4 6 14 8 24 5 14 -5 14 -4 3 4 -8 6 -20 8 -27 5 -7 -2 -15 4 -18 15 -7 22
-33 25 -41 5z"/>
<path d="M26345 12481 c3 -5 -1 -11 -7 -14 -7 -2 -10 -8 -5 -13 4 -4 14 -1 23
8 14 14 14 16 -1 22 -9 3 -14 2 -10 -3z"/>
<path d="M26292 12425 c1 -34 7 -42 21 -28 4 3 2 12 -4 19 -8 9 -6 12 8 10 10
-2 12 -1 5 1 -8 3 -11 11 -8 19 3 8 -1 14 -9 14 -10 0 -14 -11 -13 -35z"/>
<path d="M26350 12409 c0 -5 5 -7 10 -4 6 3 10 8 10 11 0 2 -4 4 -10 4 -5 0
-10 -5 -10 -11z"/>
<path d="M26330 12369 c0 -6 -7 -8 -17 -5 -10 4 -14 4 -10 0 4 -4 2 -13 -4
-21 -9 -10 -8 -13 0 -13 7 0 9 -5 6 -10 -4 -6 -1 -9 6 -8 12 3 15 -2 18 -37 1
-9 7 -12 18 -8 11 4 12 8 5 11 -9 3 -9 9 -1 24 8 15 8 19 0 14 -6 -4 -19 0
-28 9 -13 14 -14 18 -3 25 8 5 17 7 20 5 4 -2 7 2 7 10 0 8 -4 15 -9 15 -4 0
-8 -5 -8 -11z"/>
<path d="M26295 12280 c-3 -5 1 -10 9 -10 9 0 16 5 16 10 0 6 -4 10 -9 10 -6
0 -13 -4 -16 -10z"/>
<path d="M26290 12210 c0 -5 6 -10 14 -10 8 0 18 5 21 10 3 6 -3 10 -14 10
-12 0 -21 -4 -21 -10z"/>
<path d="M26306 12174 c-20 -20 -20 -28 -1 -20 12 4 13 2 6 -13 -7 -13 -6 -18
4 -18 8 0 14 3 13 6 -2 19 3 31 11 26 5 -3 12 -1 16 5 3 5 1 10 -5 10 -6 0 -8
5 -5 10 10 16 -22 11 -39 -6z"/>
<path d="M26296 12102 c-3 -4 3 -13 13 -19 22 -13 45 -3 27 12 -16 13 -34 16
-40 7z"/>
<path d="M26334 12057 c-3 -10 -12 -16 -19 -15 -8 2 -14 -1 -15 -6 -1 -14 27
-16 44 -3 11 8 13 17 6 27 -8 12 -10 12 -16 -3z"/>
<path d="M26305 12010 c-3 -5 1 -10 10 -10 9 0 13 5 10 10 -3 6 -8 10 -10 10
-2 0 -7 -4 -10 -10z"/>
<path d="M26295 11970 c-3 -5 1 -10 10 -10 9 0 13 5 10 10 -3 6 -8 10 -10 10
-2 0 -7 -4 -10 -10z"/>
<path d="M26312 11949 c-21 -8 -22 -10 -8 -25 12 -12 20 -13 33 -4 17 11 17
11 1 6 -22 -7 -23 -2 -2 18 17 18 10 19 -24 5z"/>
<path d="M26335 11892 c-21 -5 -35 -19 -35 -39 0 -8 9 -9 31 -3 38 11 38 11
30 30 -3 9 -14 14 -26 12z"/>
<path d="M26325 11821 c-6 -11 9 -23 19 -14 9 9 7 23 -3 23 -6 0 -12 -4 -16
-9z"/>
<path d="M26303 11772 c0 -10 7 -19 14 -19 17 0 17 12 -1 27 -12 9 -15 8 -13
-8z"/>
<path d="M26351 11721 c-7 -5 -22 -6 -32 -4 -14 4 -18 1 -13 -10 3 -8 1 -18
-5 -22 -18 -10 -13 -25 12 -35 21 -8 21 -9 1 -9 -11 -1 -21 -8 -21 -16 0 -19
64 -38 86 -25 14 8 14 9 -2 10 -10 0 -15 5 -12 10 3 6 1 10 -4 10 -6 0 -11 5
-11 10 0 6 12 8 26 6 17 -3 24 -1 21 7 -2 7 -12 12 -23 13 -10 1 -30 4 -43 9
-23 7 -23 7 8 26 17 10 31 21 31 24 0 7 -3 6 -19 -4z m-6 -101 c3 -5 1 -10 -4
-10 -6 0 -11 5 -11 10 0 6 2 10 4 10 3 0 8 -4 11 -10z"/>
<path d="M26303 11534 c0 -44 2 -52 16 -47 14 4 14 3 1 -6 -8 -5 -15 -19 -16
-30 -1 -16 5 -19 32 -18 19 2 39 9 46 16 11 11 8 13 -19 8 -19 -4 -33 -2 -33
3 0 6 5 10 10 10 14 0 9 31 -7 48 -13 13 -7 42 8 42 5 0 9 -8 9 -18 0 -10 6
-19 14 -19 12 0 12 5 -1 32 -10 21 -22 31 -37 31 -20 0 -22 -5 -23 -52z"/>
<path d="M26370 11489 c0 -5 5 -7 10 -4 6 3 10 8 10 11 0 2 -4 4 -10 4 -5 0
-10 -5 -10 -11z"/>
<path d="M26316 11415 c-20 -16 -33 -115 -14 -115 7 0 7 -4 1 -12 -8 -11 -10
-69 -3 -88 2 -7 0 -180 -3 -217 -3 -26 1 -32 20 -36 13 -2 23 -1 23 4 0 4 8
10 18 12 13 4 11 5 -5 6 -13 0 -23 5 -23 10 0 12 31 25 53 22 21 -3 22 3 1 24
-12 12 -14 19 -6 27 8 8 6 15 -4 26 -11 10 -18 12 -26 4 -8 -8 -15 -7 -24 3
-18 17 -18 29 0 22 7 -3 19 0 25 6 8 8 3 16 -17 30 -25 17 -25 18 -3 12 15 -5
21 -3 17 3 -3 5 1 15 9 22 10 9 15 9 15 1 0 -6 5 -11 10 -11 7 0 7 6 1 18 -7
13 -7 22 1 30 8 8 7 13 -5 18 -9 3 -17 10 -17 15 0 4 7 6 16 2 11 -4 15 -1 12
13 -2 11 -7 22 -13 27 -7 5 -7 10 0 15 28 20 2 64 -27 45 -7 -3 -8 -1 -4 5 4
7 2 12 -4 12 -6 0 -8 5 -4 11 5 8 9 8 14 -1 5 -8 9 -6 12 7 3 10 -1 24 -8 31
-16 15 -15 15 -38 -3z m44 -100 c-7 -8 -17 -15 -23 -15 -6 0 -2 7 9 15 25 19
30 19 14 0z m-5 -104 c3 -5 2 -12 -3 -15 -5 -3 -9 1 -9 9 0 17 3 19 12 6z m7
-164 c-7 -8 -8 -18 -4 -23 4 -4 -1 -2 -10 5 -10 7 -18 17 -18 21 0 9 31 19 39
13 2 -1 -1 -9 -7 -16z"/>
<path d="M26365 10940 c-3 -6 1 -7 9 -4 18 7 21 14 7 14 -6 0 -13 -4 -16 -10z"/>
<path d="M26300 10905 c0 -29 7 -31 31 -9 11 10 25 14 36 10 15 -6 15 -8 3
-16 -8 -6 -10 -10 -5 -10 6 0 3 -5 -5 -10 -8 -5 -10 -10 -4 -10 15 0 46 35 37
43 -3 4 -1 7 5 7 7 0 12 3 12 8 0 4 -25 8 -55 10 -53 2 -55 1 -55 -23z"/>
<path d="M26303 10850 c1 -11 7 -15 18 -13 10 3 15 11 13 17 -7 19 -33 15 -31
-4z"/>
<path d="M26337 10819 c-15 -17 -27 -25 -27 -18 0 7 -3 10 -6 6 -3 -3 -3 -11
1 -17 4 -7 16 -2 33 15 19 19 27 22 33 13 4 -7 11 -9 15 -5 4 4 1 14 -7 22
-13 13 -18 11 -42 -16z"/>
<path d="M26302 10744 c-1 -20 2 -25 14 -20 8 3 13 2 10 -3 -9 -13 37 -22 49
-9 7 8 6 9 -2 4 -25 -14 -35 5 -17 32 17 26 17 26 -1 12 -14 -11 -19 -12 -22
-2 -8 22 -29 13 -31 -14z"/>
<path d="M26310 10693 c17 -8 11 -23 -7 -16 -15 6 -16 4 -6 -9 7 -8 9 -19 5
-23 -4 -5 -1 -5 6 -1 7 5 29 8 48 8 19 0 34 4 34 8 0 13 -26 19 -41 9 -21 -13
-27 -11 -25 7 0 9 -5 18 -12 20 -7 1 -8 0 -2 -3z"/>
<path d="M26300 10623 c0 -14 19 -38 25 -32 8 8 -5 39 -16 39 -5 0 -9 -3 -9
-7z"/>
<path d="M26365 10580 c-3 -6 1 -7 9 -4 18 7 21 14 7 14 -6 0 -13 -4 -16 -10z"/>
<path d="M26300 10556 c0 -2 9 -6 20 -9 11 -3 18 -1 14 4 -5 9 -34 13 -34 5z"/>
<path d="M26320 10504 c-23 -13 -24 -14 -4 -14 12 0 27 7 34 15 15 18 4 18
-30 -1z"/>
<path d="M26335 10450 c-3 -5 -1 -10 4 -10 6 0 11 5 11 10 0 6 -2 10 -4 10 -3
0 -8 -4 -11 -10z"/>
<path d="M26303 10401 c1 -39 4 -47 19 -46 10 1 21 5 25 10 5 4 3 5 -3 2 -7
-4 -17 -1 -23 7 -15 18 11 30 28 13 9 -9 11 -8 6 6 -4 9 -14 17 -22 17 -8 0
-12 3 -10 8 3 4 -1 12 -8 19 -10 9 -12 2 -12 -36z"/>
<path d="M26306 10325 c-3 -9 0 -15 9 -15 16 0 20 16 6 24 -5 3 -11 -1 -15 -9z"/>
<path d="M26345 10330 c-3 -5 1 -10 9 -10 8 0 18 5 21 10 3 6 -1 10 -9 10 -8
0 -18 -4 -21 -10z"/>
<path d="M26318 10291 c-18 -21 -17 -21 45 -12 8 1 -17 31 -25 31 -2 0 -11 -9
-20 -19z"/>
<path d="M26315 10240 c3 -5 13 -6 23 -3 13 4 13 2 -3 -10 -17 -14 -17 -16 -4
-17 17 0 32 23 22 34 -10 10 -45 7 -38 -4z"/>
<path d="M26304 10180 l0 -30 21 20 c12 11 24 18 27 15 3 -3 8 1 11 9 5 12 1
13 -17 6 -14 -5 -27 -5 -33 1 -6 6 -9 -2 -9 -21z"/>
<path d="M26355 10136 c-10 -7 -26 -11 -35 -9 -13 4 -19 -3 -22 -26 -4 -26 -1
-32 19 -37 14 -4 20 -11 16 -18 -4 -6 1 -5 10 3 9 7 17 19 16 25 0 8 -2 8 -5
0 -3 -7 -14 -10 -24 -7 -23 6 -27 23 -5 23 8 0 20 10 26 22 12 22 12 22 19 3
7 -19 8 -19 15 -2 11 26 -7 40 -30 23z"/>
<path d="M26370 10069 c0 -5 5 -7 10 -4 6 3 10 8 10 11 0 2 -4 4 -10 4 -5 0
-10 -5 -10 -11z"/>
<path d="M20488 10058 c-23 -20 -379 -498 -387 -522 -11 -32 -2 -56 25 -67 14
-5 97 -9 184 -9 87 0 161 -4 164 -9 4 -5 -1 -38 -9 -73 -19 -80 -19 -156 0
-236 21 -87 55 -150 122 -223 114 -123 237 -179 392 -179 99 0 168 16 240 55
28 16 53 26 55 24 2 -2 20 -65 40 -139 47 -171 62 -204 99 -208 18 -2 37 4 49
15 22 19 325 410 371 478 33 48 34 79 5 99 -18 13 -55 16 -190 16 -92 0 -169
3 -171 8 -3 4 2 43 11 86 27 139 -11 287 -102 391 l-34 40 14 -55 c59 -228
-99 -442 -316 -427 -141 9 -240 107 -240 237 0 140 108 231 236 199 94 -24
145 -136 88 -193 -26 -27 -44 -20 -44 17 0 44 -24 75 -64 82 -72 14 -135 -54
-120 -131 13 -72 73 -115 159 -115 63 0 101 17 144 66 71 81 82 189 30 293
-34 69 -77 109 -159 150 -50 25 -65 27 -170 27 -104 0 -121 -3 -172 -27 -42
-19 -60 -24 -65 -15 -4 7 -27 79 -50 160 -23 82 -49 159 -57 173 -18 26 -53
32 -78 12z"/>
<path d="M26304 10016 c0 -16 4 -22 11 -17 5 5 18 7 28 6 9 -2 17 0 17 5 0 4
-8 10 -17 14 -10 3 -23 8 -28 11 -6 3 -11 -6 -11 -19z"/>
<path d="M26370 10000 c0 -5 5 -10 11 -10 5 0 7 5 4 10 -3 6 -8 10 -11 10 -2
0 -4 -4 -4 -10z"/>
<path d="M26310 9961 c0 -5 7 -12 16 -15 8 -3 12 -11 9 -17 -4 -6 -12 -8 -19
-6 -14 5 -16 -45 -2 -55 6 -4 17 -3 27 2 9 5 20 6 25 2 5 -4 2 1 -5 11 -7 9
-21 17 -29 17 -12 0 -11 4 6 16 18 12 20 19 12 29 -8 10 -7 14 7 18 10 3 3 5
-14 6 -18 0 -33 -3 -33 -8z"/>
<path d="M26370 9939 c0 -5 5 -7 10 -4 6 3 10 8 10 11 0 2 -4 4 -10 4 -5 0
-10 -5 -10 -11z"/>
<path d="M13950 9831 c-111 -36 -162 -108 -162 -231 0 -196 116 -355 337 -461
127 -62 239 -82 420 -76 175 6 256 24 385 88 300 148 425 532 213 656 -40 23
-59 27 -119 27 -62 0 -78 -4 -120 -30 -42 -25 -52 -39 -72 -89 -57 -148 -84
-185 -169 -226 -41 -21 -63 -24 -153 -24 -98 0 -109 2 -160 30 -64 35 -111 94
-135 167 -30 93 -46 118 -91 144 -46 27 -131 39 -174 25z"/>
<path d="M26307 9813 c-10 -10 -8 -33 3 -33 5 0 7 7 4 15 -4 8 -1 15 5 15 6 0
11 -4 11 -9 0 -5 6 -11 14 -14 10 -4 12 0 9 14 -5 18 -33 26 -46 12z"/>
<path d="M26315 9762 c-6 -4 -11 -13 -12 -19 -4 -18 24 -16 30 2 7 17 -4 27
-18 17z"/>
<path d="M26303 9691 c1 -13 9 -15 36 -12 26 4 30 6 14 9 -13 2 -23 7 -23 11
0 4 -6 8 -14 8 -8 0 -14 -8 -13 -16z"/>
<path d="M26325 9660 c-3 -5 -3 -10 2 -11 4 0 -1 -5 -12 -10 -18 -8 -18 -8 5
-6 26 2 42 16 34 29 -7 11 -22 10 -29 -2z"/>
<path d="M26360 9619 c0 -6 -12 -8 -29 -6 -25 4 -28 2 -28 -19 0 -13 4 -24 9
-24 5 0 7 4 3 9 -3 5 0 13 6 17 8 4 9 3 5 -4 -4 -7 -1 -12 8 -12 9 0 16 5 16
11 0 6 6 9 13 6 8 -3 13 3 13 14 0 11 -4 19 -8 19 -4 0 -8 -5 -8 -11z"/>
<path d="M26307 9562 c-15 -3 -16 -6 -6 -18 10 -12 14 -12 20 -2 7 10 9 10 9
1 0 -18 27 -16 33 1 6 15 -24 25 -56 18z"/>
<path d="M26375 9540 c-3 -5 -1 -10 4 -10 6 0 11 5 11 10 0 6 -2 10 -4 10 -3
0 -8 -4 -11 -10z"/>
<path d="M26314 9505 c-19 -15 -19 -15 1 -31 16 -14 17 -16 3 -11 -12 4 -18 1
-18 -8 0 -7 8 -22 18 -31 16 -17 16 -18 -1 -11 -16 6 -18 2 -15 -31 2 -26 7
-36 18 -34 11 2 10 -1 -3 -12 -13 -10 -18 -28 -19 -62 -1 -73 1 -86 12 -79 14
9 12 -7 -3 -27 -9 -11 -12 -40 -10 -80 1 -35 3 -67 3 -73 0 -5 -2 -76 -4 -157
-4 -133 -3 -148 12 -148 12 0 13 -3 4 -12 -16 -16 -15 -85 1 -91 10 -4 10 -6
0 -6 -15 -1 -18 -31 -3 -31 6 0 10 -5 10 -11 0 -5 -6 -7 -12 -3 -7 4 -4 -3 7
-16 18 -21 18 -23 2 -17 -15 6 -17 1 -15 -26 1 -18 -2 -38 -6 -45 -4 -7 -2
-12 5 -12 8 0 8 -4 1 -13 -10 -12 -2 -40 12 -38 18 3 19 -1 2 -14 -12 -9 -16
-20 -12 -32 7 -16 9 -16 24 4 13 17 20 20 32 12 13 -9 12 -10 -3 -5 -13 4 -17
1 -15 -12 2 -12 -3 -17 -20 -16 -20 1 -22 -2 -18 -27 2 -16 0 -32 -6 -35 -6
-4 -5 -10 3 -15 11 -7 11 -9 1 -9 -10 0 -12 -19 -8 -85 5 -90 11 -109 28 -99
7 4 8 2 4 -5 -4 -6 -11 -9 -16 -6 -5 3 -11 -9 -15 -26 -5 -22 -3 -34 6 -40 10
-6 10 -9 2 -9 -15 0 -16 -127 -2 -136 5 -3 6 -11 2 -17 -4 -7 -9 -22 -11 -35
-2 -18 3 -24 27 -28 36 -7 31 -24 -5 -24 -25 0 -25 -2 -18 -42 4 -24 6 -61 5
-83 -4 -45 -4 -107 -1 -242 2 -74 5 -93 17 -93 8 0 11 -5 8 -10 -4 -6 -11 -8
-16 -4 -6 3 -9 -25 -8 -75 1 -44 6 -78 10 -75 5 3 17 0 26 -5 18 -10 16 -12
-21 -15 -18 -1 -20 -9 -21 -96 -1 -149 0 -152 65 -164 3 -1 10 -4 16 -8 14 -9
24 0 18 17 -3 7 -15 11 -27 8 -16 -4 -18 -2 -8 5 11 8 10 11 -7 16 -12 4 -20
15 -19 26 1 14 6 18 18 15 23 -7 33 10 20 33 -7 13 -7 22 1 30 9 9 9 12 0 12
-6 0 -9 7 -6 15 4 8 1 15 -5 15 -6 0 -11 5 -11 11 0 5 5 7 10 4 6 -3 10 -2 10
2 0 5 -10 14 -22 22 -22 14 -22 14 -3 21 27 10 52 1 33 -11 -9 -6 -9 -9 -1 -9
6 0 15 5 18 10 4 6 10 8 15 5 5 -3 11 -1 14 4 3 5 -9 11 -26 15 -25 5 -29 9
-20 18 18 18 14 38 -10 61 -16 13 -19 21 -10 24 13 5 17 24 5 22 -19 -3 -33 2
-33 12 0 6 8 8 18 5 17 -6 44 6 43 18 -3 19 0 26 12 26 8 0 14 7 14 15 0 13
-3 12 -19 -2 -16 -15 -21 -15 -28 -3 -12 19 -2 33 17 25 13 -4 14 -3 4 9 -7 8
-10 20 -6 26 3 5 0 10 -8 10 -8 0 -22 8 -31 19 -14 15 -14 19 -3 24 8 3 19 1
25 -5 7 -7 15 -1 26 21 15 28 15 30 0 24 -14 -5 -16 -2 -10 21 5 22 2 32 -16
48 -22 20 -22 20 -2 14 17 -5 22 -2 26 18 3 16 1 23 -7 20 -12 -5 -21 8 -24
31 0 5 5 10 12 11 39 3 40 4 17 24 -13 11 -19 20 -15 20 5 0 4 5 -3 12 -14 14
-16 32 -3 24 4 -3 13 6 20 20 6 15 7 23 1 19 -13 -8 -13 1 0 25 9 16 8 19 -7
13 -10 -3 -15 -3 -11 2 4 4 0 14 -10 22 -16 14 -16 14 1 9 22 -7 34 19 17 39
-10 12 -10 15 2 15 19 0 18 38 -1 50 -13 7 -13 11 0 26 12 16 12 17 -4 11 -12
-4 -16 -3 -11 4 4 6 1 15 -6 19 -8 5 -10 15 -5 26 5 13 9 15 12 7 5 -15 33
-18 33 -4 0 5 -7 17 -16 25 -14 15 -13 16 7 16 l22 0 -22 19 c-16 14 -18 21
-9 24 7 3 1 6 -14 6 -29 1 -43 15 -33 31 5 8 11 7 21 0 28 -24 36 -4 9 25 -14
17 -24 24 -20 18 3 -7 2 -13 -3 -13 -6 0 -12 6 -15 14 -7 17 15 27 33 16 29
-18 30 3 2 30 -27 25 -28 29 -11 33 10 3 20 0 22 -6 1 -5 8 -8 14 -6 7 3 8 12
2 28 -8 19 -12 21 -24 11 -15 -12 -35 -6 -35 12 0 5 7 8 15 4 9 -3 15 0 15 10
0 8 4 13 8 10 4 -2 14 -1 21 3 10 6 9 11 -3 24 -20 19 -20 27 -2 27 12 0 12 5
-1 31 -10 19 -20 28 -30 25 -8 -3 -11 -1 -8 4 3 6 1 10 -4 10 -6 0 -11 5 -11
11 0 5 5 7 10 4 6 -3 10 -1 10 5 0 6 11 8 28 4 21 -4 24 -3 12 5 -8 6 -27 11
-42 11 -15 0 -30 5 -33 10 -3 6 -2 10 4 10 5 0 17 3 27 7 12 4 15 3 10 -5 -4
-8 -2 -10 7 -6 8 3 17 14 20 24 5 18 3 19 -23 5 -22 -11 -29 -12 -33 -2 -4 12
27 46 45 48 4 1 12 2 17 3 18 2 24 16 7 16 -10 0 -15 5 -11 13 4 6 1 5 -7 -3
-17 -20 -40 -19 -45 0 -4 13 -3 13 6 0 6 -8 11 -10 12 -5 0 6 2 20 3 32 1 12
-1 20 -5 17 -4 -2 -10 0 -14 6 -4 6 6 10 24 10 17 0 31 5 31 10 0 6 10 10 22
10 19 0 17 4 -15 25 -38 26 -48 39 -23 29 8 -3 17 -1 20 4 3 6 -1 12 -9 16 -8
3 -15 12 -15 21 0 8 -5 15 -11 15 -5 0 -8 4 -4 10 3 5 12 7 20 4 22 -9 38 5
24 22 -6 7 -15 12 -19 9 -4 -3 -13 2 -19 9 -9 11 -9 16 0 22 8 4 9 3 5 -4 -4
-7 -3 -12 2 -12 14 0 23 28 12 35 -6 4 -14 4 -19 1 -5 -4 -7 3 -4 14 3 10 8
19 12 18 18 -2 21 4 11 21 -7 14 -6 21 3 25 6 3 2 3 -10 0 -13 -3 -23 -1 -23
5 0 6 7 11 16 11 8 0 12 5 9 10 -3 6 -14 10 -25 10 -10 0 -21 7 -24 15 -4 12
-2 14 11 7 11 -7 21 -4 34 9 29 29 13 65 -23 53 -22 -7 -23 2 -3 23 9 8 25 13
35 10 11 -3 20 -1 20 4 0 13 -39 31 -53 23 -6 -4 -9 -4 -5 1 4 4 3 14 -3 22
-11 12 -2 18 24 14 4 0 7 6 7 15 0 8 -4 13 -9 10 -4 -3 -13 6 -19 19 -9 20 -9
25 3 25 9 0 12 -6 9 -15 -9 -22 14 -18 26 5 6 11 7 20 3 19 -19 -3 -33 2 -33
11 0 6 11 10 25 10 14 0 25 4 25 10 0 11 -35 31 -44 25 -3 -3 -3 -2 0 2 3 4
13 8 22 8 12 0 16 7 14 25 -4 42 -10 50 -37 50 -14 0 -25 5 -25 11 0 5 5 7 10
4 6 -3 10 1 10 11 0 14 3 14 15 4 11 -9 19 -10 26 -3 7 7 3 19 -15 36 -29 29
-33 42 -12 34 10 -4 13 -1 9 9 -3 7 -14 14 -25 14 -14 0 -18 5 -14 15 3 8 4
15 3 15 -2 0 -12 -7 -23 -15z m56 -486 c0 -14 -17 -10 -23 5 -4 10 -1 13 9 9
7 -3 14 -9 14 -14z m-12 -128 c-15 -25 -24 -26 -32 -6 -4 10 1 15 14 15 11 0
20 5 20 12 0 6 3 9 6 6 3 -3 -1 -15 -8 -27z m-8 -191 c0 -5 -4 -10 -10 -10 -5
0 -10 5 -10 10 0 6 5 10 10 10 6 0 10 -4 10 -10z m-13 -416 c-3 -3 -12 -4 -19
-1 -8 3 -5 6 6 6 11 1 17 -2 13 -5z m39 -427 c4 -4 -5 -7 -20 -7 -15 0 -25 4
-22 9 7 10 31 9 42 -2z m-26 -167 c0 -5 -5 -10 -11 -10 -5 0 -7 5 -4 10 3 6 8
10 11 10 2 0 4 -4 4 -10z m10 -379 c0 -14 -18 -23 -31 -15 -8 4 -7 9 2 15 18
11 29 11 29 0z m-26 -280 c3 -5 0 -11 -7 -14 -8 -3 -14 1 -14 9 0 16 13 19 21
5z m11 -79 c-3 -4 -10 0 -15 8 -6 9 -5 17 3 22 13 8 24 -19 12 -30z"/>
<path d="M26380 9160 c-6 -12 -16 -18 -23 -14 -9 5 -9 4 0 -6 14 -15 47 -5 37
11 -3 6 0 15 7 20 10 6 10 9 2 9 -7 0 -17 -9 -23 -20z"/>
<path d="M19377 8815 c-425 -69 -796 -368 -938 -756 -50 -137 -69 -240 -75
-404 -13 -341 77 -606 290 -857 138 -164 370 -305 582 -354 162 -37 366 -35
528 6 164 41 341 152 436 271 44 55 46 54 53 -32 10 -109 79 -201 176 -234 59
-20 175 -19 237 2 68 23 145 101 170 173 18 51 19 89 19 580 0 462 -3 536 -18
620 -95 501 -436 858 -927 971 -115 27 -408 34 -533 14z m430 -585 c182 -63
335 -232 387 -425 26 -94 31 -246 12 -335 -46 -219 -212 -404 -414 -464 -140
-41 -308 -25 -442 40 -106 52 -223 170 -274 276 -53 110 -69 198 -63 338 8
186 58 303 181 425 79 78 178 136 272 160 85 21 259 14 341 -15z"/>
<path d="M7398 8807 c-175 -50 -258 -239 -173 -395 14 -26 154 -204 310 -397
212 -262 281 -353 275 -365 -11 -20 -395 -499 -532 -664 -124 -148 -143 -190
-136 -295 6 -82 33 -136 93 -189 64 -56 127 -75 229 -70 67 3 91 10 142 37 34
18 77 49 96 69 39 41 231 288 484 624 107 142 172 220 187 223 12 3 52 5 87 3
l65 -3 5 -360 c5 -353 5 -361 29 -413 29 -65 104 -134 168 -156 27 -9 80 -16
127 -16 139 0 226 56 285 180 l26 55 0 355 0 355 82 0 c73 0 84 -3 108 -25 15
-14 148 -180 295 -370 344 -442 372 -476 428 -511 64 -41 114 -52 208 -47 67
4 90 10 135 35 61 34 113 95 129 151 16 61 12 162 -10 210 -11 23 -61 94 -112
156 -127 154 -489 604 -517 643 l-24 32 34 43 c19 24 148 185 288 358 140 173
265 338 277 365 48 102 23 236 -57 312 -96 91 -263 106 -376 35 -33 -20 -113
-117 -315 -377 -149 -192 -296 -381 -326 -418 l-53 -68 -97 3 -97 3 -5 345
c-5 325 -6 348 -26 390 -29 61 -78 108 -144 139 -79 37 -201 37 -280 0 -70
-32 -116 -79 -149 -149 l-26 -55 -3 -337 -3 -338 -90 0 c-86 0 -92 1 -117 28
-15 15 -148 187 -297 382 -148 195 -289 375 -313 401 -24 27 -64 56 -93 68
-63 27 -159 35 -221 18z"/>
<path d="M10985 8806 c-85 -27 -154 -83 -189 -154 -27 -54 -39 -137 -27 -194
11 -48 165 -410 306 -718 87 -189 153 -337 320 -715 76 -170 160 -359 188
-419 l51 -108 -23 -67 c-37 -105 -107 -241 -156 -304 -87 -110 -166 -147 -315
-147 -154 0 -244 -47 -291 -152 -31 -71 -33 -183 -3 -248 62 -136 222 -196
450 -171 286 32 502 168 671 421 78 117 166 306 329 709 109 266 396 964 606
1470 l180 434 -4 87 c-3 71 -9 95 -30 131 -62 104 -148 153 -268 153 -161 -1
-235 -65 -319 -275 -79 -198 -427 -1099 -468 -1212 -20 -54 -40 -94 -44 -90
-4 4 -30 64 -57 133 -27 69 -74 184 -104 255 -31 72 -97 229 -148 350 -134
319 -269 633 -296 686 -63 125 -220 189 -359 145z"/>
<path d="M13667 8810 c-102 -18 -177 -75 -221 -169 -21 -46 -21 -55 -24 -986
-3 -1009 -3 -1021 47 -1096 58 -86 145 -123 279 -117 103 4 172 32 241 100 41
41 219 263 477 598 248 321 487 626 508 647 l21 23 -3 -541 c-3 -589 -1 -613
54 -706 27 -46 88 -93 146 -112 55 -18 168 -16 229 4 73 24 149 101 175 175
18 53 19 95 17 997 -2 1078 4 1007 -87 1099 -66 65 -129 88 -241 88 -66 0 -91
-5 -140 -28 -33 -15 -71 -37 -84 -49 -27 -26 -189 -227 -387 -482 -77 -99
-239 -306 -359 -460 -120 -154 -227 -295 -239 -312 -12 -18 -24 -33 -28 -33
-5 0 -8 249 -8 553 0 619 0 617 -69 704 -42 54 -102 88 -181 103 -58 11 -55
11 -123 0z"/>
<path d="M16400 8814 c-104 -20 -191 -78 -230 -155 -39 -75 -41 -132 -38
-1079 l3 -915 24 -53 c29 -65 104 -134 168 -156 26 -9 79 -16 119 -16 170 0
284 91 314 250 5 29 10 198 10 376 l0 324 89 0 c82 0 92 -2 120 -26 17 -14 97
-112 178 -217 266 -347 495 -628 536 -658 114 -83 302 -78 409 11 20 17 49 56
65 88 23 47 28 70 27 127 -1 88 -21 130 -118 245 -168 197 -557 693 -554 705
2 8 127 167 278 355 151 188 289 365 305 393 27 46 30 61 30 132 0 90 -19 137
-77 192 -56 54 -121 78 -213 77 -97 0 -154 -23 -213 -83 -21 -22 -171 -210
-333 -417 -162 -207 -299 -382 -305 -390 -8 -10 -38 -14 -117 -14 l-106 0 -3
338 -3 337 -33 67 c-37 76 -85 121 -152 143 -50 16 -142 26 -180 19z"/>
<path d="M26400 8602 c0 -5 7 -9 15 -9 8 0 12 4 9 9 -3 4 -9 8 -15 8 -5 0 -9
-4 -9 -8z"/>
<path d="M26345 6880 c3 -5 13 -10 21 -10 8 0 12 5 9 10 -3 6 -13 10 -21 10
-8 0 -12 -4 -9 -10z"/>
<path d="M26310 6814 c-12 -14 -21 -142 -12 -176 2 -10 11 -18 19 -18 8 0 11
-5 8 -10 -4 -6 -11 -8 -16 -5 -5 4 -9 -5 -9 -19 0 -21 5 -26 26 -26 15 0 23
-4 18 -11 -3 -6 -15 -8 -26 -6 -12 4 -18 1 -15 -6 3 -7 11 -10 18 -9 8 2 11 0
7 -4 -12 -11 11 -34 28 -27 9 3 14 -1 14 -13 0 -9 2 -15 5 -12 9 9 -6 59 -15
53 -5 -3 -11 -1 -14 4 -4 5 -1 13 5 17 9 5 6 11 -7 21 -16 12 -17 15 -4 23 22
14 33 12 27 -4 -3 -8 0 -19 7 -25 9 -8 12 -4 12 19 0 16 -3 27 -7 24 -4 -2
-10 0 -14 6 -3 5 -2 10 4 10 6 0 8 6 5 14 -6 15 29 40 40 29 3 -3 6 -1 6 6 0
7 -9 15 -20 18 -11 3 -17 9 -14 14 3 5 -2 12 -10 15 -9 3 -16 11 -16 16 0 6 6
6 14 -1 23 -19 28 4 6 24 -11 10 -20 25 -20 34 0 9 -9 22 -19 28 -15 10 -22 9
-31 -3z m40 -30 c0 -8 -4 -12 -10 -9 -5 3 -10 10 -10 16 0 5 5 9 10 9 6 0 10
-7 10 -16z m-20 -94 c0 -5 -2 -10 -4 -10 -3 0 -8 5 -11 10 -3 6 -1 10 4 10 6
0 11 -4 11 -10z m60 -20 c-19 -13 -30 -13 -30 0 0 6 10 10 23 10 18 0 19 -2 7
-10z m-36 -31 c-10 -16 -24 -9 -24 12 0 18 2 19 15 9 8 -7 12 -16 9 -21z"/>
<path d="M26301 6473 c-1 -10 -2 -31 -2 -48 -3 -61 0 -75 16 -69 20 8 19 -6
-2 -21 -15 -11 -13 -12 17 -9 31 4 49 17 50 37 0 4 -5 7 -11 7 -5 0 -7 -4 -4
-10 3 -5 0 -10 -8 -10 -21 0 -31 32 -13 42 8 5 13 15 10 23 -4 8 -9 13 -13 11
-4 -3 -13 0 -21 5 -12 8 -11 9 5 7 12 -2 21 4 23 15 2 10 -3 17 -13 17 -9 0
-13 5 -10 10 3 6 -1 10 -9 10 -8 0 -15 -8 -15 -17z"/>
<path d="M26395 6370 c-3 -5 3 -10 15 -10 12 0 18 5 15 10 -3 6 -10 10 -15 10
-5 0 -12 -4 -15 -10z"/>
<path d="M26298 6298 c6 -6 8 -17 5 -25 -5 -13 -2 -13 14 -5 31 17 37 1 7 -18
l-25 -17 22 -6 c28 -8 39 1 19 14 -11 8 -10 9 8 4 15 -4 22 -2 22 7 -1 28 -26
53 -54 55 -21 2 -26 -1 -18 -9z"/>
<path d="M26302 6189 c0 -19 6 -42 15 -51 15 -17 15 -18 0 -18 -10 0 -17 -3
-18 -7 -8 -73 -9 -91 -4 -110 3 -14 13 -23 25 -23 11 0 20 -4 20 -9 0 -12 29
-41 41 -41 5 0 9 5 9 10 0 6 -7 10 -15 10 -20 0 -19 19 0 26 13 5 12 9 -6 25
-11 10 -18 23 -14 28 8 14 0 14 -28 0 -20 -9 -20 -9 -5 4 14 11 15 16 5 26
-10 10 -6 10 16 0 15 -7 27 -16 27 -20 0 -4 8 -10 18 -14 13 -5 14 -3 5 6 -6
6 -9 18 -6 25 3 10 -5 16 -26 20 -17 4 -31 11 -31 16 0 5 -5 6 -12 2 -7 -5 -8
-3 -3 5 4 7 15 11 24 8 11 -3 17 2 18 14 1 12 -5 19 -17 19 -10 0 -22 5 -25
10 -3 6 0 10 7 10 8 0 14 9 14 19 0 11 -4 18 -8 15 -4 -2 -11 3 -16 12 -7 12
-9 8 -10 -17z"/>
<path d="M26326 5961 c5 -10 3 -13 -8 -9 -8 4 -15 0 -15 -7 0 -12 44 -31 52
-23 2 2 -5 14 -17 28 -11 14 -16 19 -12 11z"/>
<path d="M26305 5878 c-5 -21 -4 -33 4 -36 6 -2 11 -8 11 -13 0 -6 -4 -8 -8
-5 -4 2 -9 -6 -10 -20 -1 -16 3 -24 14 -24 11 0 14 5 10 16 -5 14 -4 15 8 5
21 -17 9 -43 -16 -35 -17 5 -19 2 -16 -32 2 -29 9 -42 26 -50 13 -7 19 -15 14
-18 -6 -3 -13 -2 -17 4 -10 16 -21 11 -22 -11 -1 -14 3 -19 13 -15 8 3 14 2
14 -2 0 -4 9 -13 21 -20 12 -8 18 -9 14 -3 -3 6 0 11 7 11 8 0 15 13 16 30 2
26 -1 30 -23 30 -19 0 -23 4 -18 17 4 10 2 14 -4 10 -5 -3 -10 0 -10 8 0 18
19 19 35 3 16 -16 49 -20 57 -8 4 6 -2 13 -12 17 -16 6 -37 29 -32 35 1 2 -4
14 -11 28 -13 24 -12 24 6 10 19 -14 19 -14 0 7 -10 13 -22 20 -27 18 -14 -9
-21 15 -9 30 15 17 30 20 30 4 0 -5 -4 -8 -9 -5 -5 3 -11 0 -14 -7 -5 -14 26
-17 39 -4 12 12 -18 37 -43 37 -14 0 -21 4 -18 10 3 6 2 10 -4 10 -5 0 -13
-14 -16 -32z m60 -118 c3 -5 1 -10 -4 -10 -6 0 -11 5 -11 10 0 6 2 10 4 10 3
0 8 -4 11 -10z"/>
<path d="M26302 5598 c-1 -37 5 -51 19 -42 6 3 5 12 -3 22 -11 13 -11 15 4 9
9 -3 19 -1 22 6 2 7 5 5 5 -4 1 -19 -33 -52 -42 -42 -4 3 -7 2 -7 -3 0 -12 21
-34 32 -34 4 0 5 6 2 14 -6 16 33 29 40 12 3 -7 8 -6 15 4 11 16 5 33 -9 25
-5 -3 -11 -1 -15 4 -3 5 3 15 12 21 13 8 14 10 2 7 -8 -3 -26 4 -40 14 -33 25
-36 24 -37 -13z"/>
<path d="M26347 5499 c-4 -14 -2 -19 8 -16 7 3 18 0 25 -6 10 -9 11 -9 6 0 -4
7 3 13 16 16 20 4 19 4 -4 6 -16 0 -28 6 -28 11 0 18 -18 10 -23 -11z"/>
<path d="M26318 5463 c-11 -3 -16 -14 -16 -34 1 -17 6 -28 12 -26 12 4 41 -21
33 -29 -3 -3 -15 -1 -26 6 -17 8 -21 8 -21 -4 0 -18 19 -24 49 -17 19 5 24 14
26 41 1 31 -19 72 -34 69 -3 -1 -14 -3 -23 -6z m50 -32 c3 -8 -5 -11 -24 -9
-15 2 -29 8 -31 15 -3 8 6 11 23 9 16 -2 30 -9 32 -15z"/>
<path d="M26390 5391 c0 -5 9 -11 20 -14 24 -6 27 8 4 17 -21 8 -24 8 -24 -3z"/>
<path d="M26304 5271 c1 -31 5 -62 9 -68 10 -16 27 -17 27 -2 0 5 -3 8 -7 6
-5 -3 -9 6 -9 19 -1 13 2 22 6 19 4 -3 13 2 20 10 9 11 16 12 25 5 8 -7 12 -5
12 5 0 10 -11 15 -34 15 -23 0 -32 -4 -27 -12 4 -6 3 -8 -4 -5 -11 7 -11 32 1
43 11 11 8 21 -7 21 -10 0 -13 -15 -12 -56z"/>
<path d="M26344 5321 c4 -5 0 -11 -6 -14 -21 -7 -1 -19 21 -12 22 7 18 35 -6
35 -8 0 -12 -4 -9 -9z"/>
<path d="M26343 5226 c4 -10 7 -20 7 -22 0 -2 4 -4 9 -4 14 0 6 33 -9 38 -9 3
-11 -1 -7 -12z"/>
<path d="M26370 5180 c0 -5 5 -10 11 -10 5 0 7 5 4 10 -3 6 -8 10 -11 10 -2 0
-4 -4 -4 -10z"/>
<path d="M26307 5166 c-3 -8 4 -21 16 -30 12 -9 18 -15 12 -15 -32 4 -34 -1
-30 -128 4 -149 4 -153 22 -153 15 0 54 -20 66 -35 5 -6 7 -1 4 12 -3 12 0 24
7 27 6 2 1 5 -11 5 -13 1 -23 6 -23 12 0 6 6 9 13 6 8 -3 14 1 14 9 0 8 -6 14
-14 14 -7 0 -13 5 -13 11 0 5 -4 8 -9 4 -11 -6 -24 12 -28 37 -2 10 3 17 10
15 22 -4 7 46 -17 56 -10 4 -17 10 -14 13 9 8 58 -18 58 -32 0 -17 17 -27 31
-19 6 5 4 12 -8 21 -16 12 -16 15 -3 24 8 5 11 10 5 10 -5 0 -1 7 9 15 11 8
15 15 9 15 -7 0 -15 -5 -18 -10 -5 -9 -52 -4 -64 7 -10 8 35 31 44 23 7 -5 11
2 11 20 1 17 -3 28 -10 27 -6 -1 -10 4 -8 11 1 6 -4 11 -10 10 -7 -2 -11 4
-10 12 2 8 0 12 -4 8 -4 -4 -13 -3 -19 2 -9 7 -14 6 -18 -4z m38 -76 c8 -13
-5 -13 -25 0 -13 8 -13 10 2 10 9 0 20 -4 23 -10z m22 -56 c-3 -3 -12 -4 -19
-1 -8 3 -5 6 6 6 11 1 17 -2 13 -5z m-7 -159 c0 -7 -30 -13 -34 -7 -3 4 4 9
15 9 10 1 19 0 19 -2z"/>
<path d="M26346 4934 c-3 -7 5 -9 20 -6 13 2 24 8 24 13 0 12 -39 6 -44 -7z"/>
<path d="M26410 4879 c0 -5 9 -9 20 -9 11 0 20 2 20 4 0 2 -9 6 -20 9 -11 3
-20 1 -20 -4z"/>
<path d="M26308 4823 c7 -3 16 -2 19 1 4 3 -2 6 -13 5 -11 0 -14 -3 -6 -6z"/>
<path d="M26302 4678 c-1 -94 2 -135 11 -140 9 -6 8 -8 -2 -8 -11 0 -11 -3 -1
-15 10 -11 10 -15 0 -15 -6 0 -10 -6 -8 -12 7 -19 55 -17 54 1 -1 9 8 15 21
16 13 0 23 4 23 9 1 10 -22 17 -52 17 -9 0 -19 8 -23 17 -3 9 -3 13 1 9 4 -4
19 0 33 9 14 9 20 11 14 3 -17 -17 -16 -29 1 -29 7 0 16 11 18 24 4 20 0 26
-20 31 -35 9 -18 20 26 17 27 -2 33 0 22 7 -8 5 -19 8 -25 5 -5 -3 0 3 13 12
25 19 30 36 7 28 -14 -6 -19 6 -18 43 1 7 -3 11 -7 8 -4 -3 -11 2 -14 11 -8
21 -8 20 12 40 16 17 16 18 -1 11 -13 -5 -17 -2 -15 11 2 13 -5 18 -33 20
l-35 3 -2 -133z"/>
<path d="M26367 4466 c-4 -10 0 -12 14 -9 10 3 16 9 13 14 -8 13 -21 11 -27
-5z"/>
<path d="M26310 4439 c0 -5 3 -9 8 -10 14 -1 37 -7 53 -14 10 -4 19 0 22 9 4
11 0 13 -19 10 -13 -2 -24 -1 -24 4 0 4 -9 8 -20 9 -11 1 -20 -2 -20 -8z"/>
<path d="M26300 4410 c0 -5 7 -10 16 -10 8 0 12 5 9 10 -3 6 -10 10 -16 10 -5
0 -9 -4 -9 -10z"/>
<path d="M26328 4384 c-27 -14 -39 -44 -18 -44 5 0 7 7 4 15 -7 17 7 20 22 5
6 -6 15 -6 24 0 12 8 12 10 1 10 -7 0 -11 6 -7 15 6 18 8 18 -26 -1z"/>
<path d="M26375 4340 c3 -5 8 -10 11 -10 2 0 4 5 4 10 0 6 -5 10 -11 10 -5 0
-7 -4 -4 -10z"/>
<path d="M26317 4326 c-15 -12 -16 -14 -2 -20 8 -3 15 -1 15 4 0 16 29 -1 35
-21 8 -25 35 -24 35 1 0 13 -7 20 -20 20 -11 0 -23 7 -26 15 -7 18 -14 18 -37
1z"/>
<path d="M26330 4280 c0 -5 5 -10 10 -10 6 0 10 5 10 10 0 6 -4 10 -10 10 -5
0 -10 -4 -10 -10z"/>
<path d="M26300 4263 c0 -4 5 -15 10 -23 7 -11 12 -12 21 -3 8 8 6 14 -10 22
-12 7 -21 8 -21 4z"/>
<path d="M26350 4252 c0 -15 11 -21 27 -15 12 5 12 7 1 14 -17 11 -28 11 -28
1z"/>
<path d="M26350 4210 c0 -5 5 -10 11 -10 5 0 7 5 4 10 -3 6 -8 10 -11 10 -2 0
-4 -4 -4 -10z"/>
<path d="M26318 4183 c6 -2 18 -2 25 0 6 3 1 5 -13 5 -14 0 -19 -2 -12 -5z"/>
<path d="M26360 4161 c0 -5 -13 -7 -28 -5 -22 4 -29 1 -29 -13 0 -10 5 -21 11
-25 8 -6 6 -11 -4 -18 -9 -6 -10 -10 -3 -10 6 0 18 -3 27 -6 21 -8 21 13 1 33
-21 20 -9 29 43 32 7 1 10 6 7 11 -8 13 -25 13 -25 1z"/>
<path d="M26318 4041 c-22 -22 -23 -37 -3 -45 18 -7 20 10 3 17 -10 4 -9 8 2
16 11 7 20 5 36 -10 15 -14 24 -17 29 -9 6 10 -30 51 -44 49 -3 0 -14 -8 -23
-18z m53 -18 c13 -16 12 -17 -3 -4 -10 7 -18 15 -18 17 0 8 8 3 21 -13z"/>
<path d="M26363 3980 c-13 -5 -23 -15 -23 -22 0 -10 2 -10 8 -1 4 7 18 11 29
9 16 -3 20 -1 16 10 -3 8 -6 14 -7 13 0 0 -11 -4 -23 -9z"/>
<path d="M26307 3969 c7 -7 15 -10 18 -7 3 3 -2 9 -12 12 -14 6 -15 5 -6 -5z"/>
<path d="M26308 3933 c7 -3 16 -2 19 1 4 3 -2 6 -13 5 -11 0 -14 -3 -6 -6z"/>
<path d="M26350 3925 c6 -8 18 -11 26 -8 18 7 13 12 -16 18 -18 3 -20 2 -10
-10z"/>
<path d="M26332 3901 c-9 -6 -8 -12 6 -24 17 -15 18 -15 19 3 2 23 -8 32 -25
21z"/>
<path d="M26314 3858 c3 -9 0 -19 -7 -22 -7 -2 -4 -5 6 -5 18 -1 24 -21 6 -21
-6 0 -9 -6 -6 -14 3 -8 1 -16 -4 -18 -5 -2 -4 -12 5 -23 11 -16 16 -17 29 -6
12 9 21 10 36 2 35 -19 37 9 3 40 -32 28 -43 47 -20 33 7 -4 8 -3 4 4 -4 7
-13 12 -21 12 -8 0 -19 8 -25 18 -10 15 -11 15 -6 0z m36 -76 c0 -13 -12 -22
-22 -16 -10 6 -1 24 13 24 5 0 9 -4 9 -8z m50 -22 c0 -5 -2 -10 -4 -10 -3 0
-8 5 -11 10 -3 6 -1 10 4 10 6 0 11 -4 11 -10z"/>
<path d="M26356 3739 c3 -5 -1 -9 -8 -9 -8 -1 -6 -6 6 -15 10 -8 22 -12 27
-10 4 3 9 -1 12 -7 3 -10 8 -10 18 1 8 8 9 11 3 8 -7 -4 -14 1 -17 12 -2 10
-14 20 -26 24 -11 3 -19 1 -15 -4z"/>
<path d="M26302 3707 c0 -17 7 -40 16 -51 15 -18 15 -19 1 -13 -21 7 -34 -45
-18 -74 5 -11 7 -24 4 -29 -3 -5 -1 -11 5 -15 5 -3 10 -11 10 -16 0 -6 -4 -7
-10 -4 -5 3 -10 -1 -10 -9 0 -9 4 -16 9 -16 6 0 8 -9 6 -20 -2 -12 1 -20 8
-19 23 3 37 -1 37 -11 0 -5 -6 -7 -13 -4 -17 6 -56 -25 -39 -32 6 -3 12 -10
12 -15 0 -6 -5 -7 -11 -3 -7 4 -10 1 -7 -7 7 -22 51 -41 61 -26 6 8 7 8 4 -3
-4 -17 -24 -20 -50 -7 -16 7 -17 6 -7 -12 15 -28 56 -27 71 2 7 12 17 26 23
30 7 5 3 7 -8 5 -10 -2 -21 3 -24 11 -3 8 0 11 7 7 6 -4 11 -1 11 8 0 21 -14
20 -35 0 -15 -15 -17 -15 -30 2 -16 23 -11 32 9 15 21 -18 48 13 40 46 -6 22
-4 25 11 19 16 -6 16 -4 4 11 -8 9 -9 14 -4 11 6 -4 17 -3 25 3 13 7 12 9 -2
9 -19 0 -24 15 -9 25 6 3 9 14 8 25 -1 10 -5 16 -9 14 -4 -3 -8 0 -8 5 0 6 5
11 11 11 5 0 7 5 4 10 -5 7 -11 8 -19 1 -7 -6 -17 -6 -26 -1 -13 8 -12 10 2
10 12 0 15 5 11 16 -4 11 -1 15 12 12 41 -7 25 25 -36 78 -42 35 -46 35 -47 1z
m48 -81 c0 -3 -4 -8 -10 -11 -5 -3 -10 -1 -10 4 0 6 5 11 10 11 6 0 10 -2 10
-4z m19 -89 c11 3 11 1 -3 -7 -15 -10 -16 -14 -5 -21 7 -4 10 -11 6 -16 -9 -9
-28 17 -21 29 3 4 0 8 -5 8 -6 0 -11 5 -11 12 0 9 3 9 11 1 6 -6 19 -9 28 -6z
m-24 -67 c3 -5 1 -10 -4 -10 -6 0 -11 5 -11 10 0 6 2 10 4 10 3 0 8 -4 11 -10z"/>
<path d="M26330 3260 c6 -11 16 -17 25 -14 8 4 15 2 15 -4 0 -15 -26 -22 -38
-10 -6 6 -12 6 -17 -3 -5 -7 -4 -10 2 -6 6 4 16 0 23 -8 18 -21 23 -19 39 16
15 35 5 49 -37 49 -19 0 -21 -3 -12 -20z"/>
<path d="M26304 3175 c-3 -14 -2 -36 4 -48 6 -12 11 -16 11 -8 1 11 4 11 16 1
12 -10 15 -10 15 0 0 6 -9 14 -20 17 -21 6 -26 18 -11 28 5 3 12 1 16 -5 3 -5
12 -10 18 -10 7 0 6 4 -3 10 -13 8 -12 10 3 10 9 0 17 -4 17 -10 0 -5 5 -10
11 -10 5 0 7 5 4 10 -3 6 -1 10 6 10 21 0 0 13 -24 15 -12 1 -30 5 -39 9 -13
6 -19 2 -24 -19z"/>
<path d="M26360 3090 c0 -5 9 -14 21 -20 19 -11 20 -10 9 9 -11 22 -30 29 -30
11z"/>
<path d="M26316 3074 c17 -14 17 -15 1 -10 -16 5 -18 1 -13 -32 3 -20 5 -38 6
-38 0 -1 7 -1 16 0 9 0 19 -5 21 -12 4 -9 -2 -11 -21 -6 -16 4 -26 2 -26 -5 0
-17 42 -13 74 8 l29 19 -32 16 c-17 9 -33 16 -36 16 -20 -1 -25 1 -25 10 0 6
11 8 25 4 32 -8 32 9 0 30 -31 21 -45 21 -19 0z"/>
<path d="M26370 3040 c0 -6 7 -10 15 -10 8 0 15 2 15 4 0 2 -7 6 -15 10 -8 3
-15 1 -15 -4z"/>
<path d="M26342 2949 c-13 -5 -27 -7 -31 -4 -9 5 -10 -2 -10 -70 -1 -123 5
-193 18 -209 12 -15 12 -16 -5 -10 -18 5 -18 5 0 -10 11 -9 23 -16 28 -16 4 0
8 -4 8 -10 0 -5 -9 -10 -19 -10 -11 0 -23 -5 -27 -11 -8 -13 16 -31 33 -24 7
2 15 0 18 -5 3 -5 -8 -7 -25 -5 -21 3 -30 0 -30 -10 0 -14 6 -16 52 -19 9 -1
20 -4 24 -8 18 -19 25 -6 9 18 -11 18 -13 24 -4 19 8 -5 6 1 -3 12 -24 27 -23
31 10 25 l27 -4 -25 25 c-14 13 -28 22 -32 20 -5 -2 -8 1 -8 7 0 7 7 10 15 6
18 -7 51 4 37 13 -14 9 -27 55 -13 47 7 -5 9 -1 5 8 -7 19 -16 20 -33 4 -10
-11 -16 -8 -31 12 -11 14 -19 32 -19 40 0 9 4 7 11 -7 9 -19 25 -23 66 -14 7
2 -24 28 -40 34 -19 7 -25 27 -8 27 5 0 19 -10 31 -22 17 -18 21 -19 16 -5 -4
9 -2 17 3 17 11 0 1 32 -13 41 -4 3 -2 13 7 21 8 9 12 19 8 22 -3 4 0 11 8 16
12 8 10 10 -7 10 -25 0 -40 16 -21 22 7 3 8 7 3 10 -6 3 -21 2 -33 -3z m6 -44
c12 -14 18 -25 13 -25 -10 0 -51 35 -51 44 0 13 17 5 38 -19z m-3 -207 c25
-11 34 -28 15 -28 -5 0 -10 5 -10 10 0 6 -6 10 -14 10 -8 0 -18 5 -21 10 -8
13 -2 13 30 -2z"/>
<path d="M26302 2379 c1 -82 -2 -152 -4 -155 -10 -9 5 -54 18 -55 28 -3 32 -4
40 -11 4 -5 -1 -8 -11 -8 -14 0 -15 -3 -6 -14 10 -12 8 -13 -8 -9 -12 3 -19 9
-16 13 3 5 1 11 -4 14 -14 9 -18 -13 -15 -84 4 -85 5 -441 1 -503 -2 -27 1
-51 6 -54 5 -3 4 -9 -2 -13 -9 -5 -9 -19 -2 -48 5 -23 6 -42 2 -42 -3 0 -6
-101 -6 -226 l0 -225 44 -20 c52 -23 62 -24 55 -4 -4 10 0 15 12 16 13 0 11 4
-8 11 -16 5 -28 14 -28 20 0 6 6 8 13 5 7 -3 13 5 13 20 1 15 -3 23 -10 20 -6
-3 -23 5 -36 16 -20 16 -21 19 -5 13 49 -19 50 -19 53 27 2 32 -3 49 -18 67
-27 31 -25 36 6 15 17 -11 24 -12 18 -4 -14 23 -13 41 3 57 13 14 13 16 -2 25
-14 8 -15 11 -4 18 11 7 10 9 -3 9 -10 0 -18 5 -18 11 0 5 5 7 10 4 6 -3 10 1
10 10 0 10 5 13 12 9 7 -4 8 -3 4 4 -4 7 -15 12 -24 12 -13 0 -14 2 -3 9 9 6
10 11 2 15 -16 10 10 35 29 28 9 -3 7 2 -5 11 -15 12 -17 19 -8 25 8 5 -5 17
-38 36 -28 15 -48 30 -45 33 3 3 12 0 21 -7 8 -7 15 -9 15 -6 0 4 7 0 16 -9 9
-9 19 -14 21 -11 8 8 -8 47 -17 41 -5 -3 -11 -1 -15 5 -3 5 1 10 10 10 9 0 13
5 10 10 -4 6 -11 8 -16 5 -5 -4 -9 1 -9 11 0 15 2 15 23 1 22 -14 24 -14 24 1
0 10 -4 23 -10 30 -7 9 -4 12 12 12 12 0 20 4 16 10 -3 5 -12 7 -21 3 -8 -3
-14 -1 -12 4 2 6 -8 19 -21 30 -20 17 -22 21 -8 26 10 4 18 -1 22 -14 4 -10
13 -19 21 -19 12 0 12 4 -3 25 -10 13 -22 25 -27 25 -5 0 -19 11 -32 26 -27
29 -33 54 -8 33 18 -15 64 -20 64 -8 0 12 -53 37 -67 32 -18 -7 -16 14 2 21 8
3 15 1 15 -3 0 -5 14 -14 30 -20 33 -11 39 -5 14 13 -8 6 -16 19 -18 28 -1 10
-9 25 -17 35 -33 40 -44 57 -31 49 19 -11 14 15 -5 30 -26 18 -8 30 22 14 14
-7 28 -10 32 -5 5 4 2 10 -4 12 -21 7 -15 22 7 18 11 -2 23 1 26 7 4 7 2 8 -4
4 -7 -4 -12 -1 -12 8 0 10 9 16 21 16 14 0 19 5 17 18 -2 9 -8 15 -13 12 -6
-3 -9 -8 -8 -12 2 -4 -4 -5 -12 -2 -19 8 -19 14 1 29 14 10 13 13 -15 24 -17
8 -31 18 -31 23 0 5 -5 6 -12 2 -7 -4 -8 -3 -4 5 6 9 14 8 34 -5 16 -10 27
-13 29 -7 2 6 13 9 23 6 30 -8 24 4 -12 21 -37 19 -52 20 -42 4 5 -8 2 -9 -10
-5 -10 4 -20 7 -22 7 -2 0 -4 5 -4 11 0 6 6 9 14 6 18 -7 36 12 29 31 -4 10
-2 13 5 8 7 -4 19 -3 28 2 11 6 13 11 5 16 -6 4 -11 2 -11 -3 0 -20 -17 -11
-28 14 -11 24 -11 25 9 14 17 -9 20 -8 14 2 -6 9 -3 11 9 6 10 -4 15 -3 11 3
-3 6 -1 10 5 10 7 0 5 7 -4 16 -9 8 -13 20 -10 25 3 6 -5 20 -18 31 -16 15
-18 19 -5 15 9 -4 17 -2 17 2 0 20 -13 41 -25 41 -8 0 -16 4 -19 8 -3 5 9 6
25 4 29 -4 30 -3 17 17 -8 13 -23 21 -41 21 -15 0 -26 4 -23 9 3 5 14 7 24 4
14 -3 18 1 17 16 -1 11 -5 24 -10 28 -4 5 -5 2 -1 -4 4 -7 2 -13 -3 -13 -10 0
-15 14 -12 33 0 4 -2 6 -6 6 -19 -3 -33 2 -33 12 0 5 4 8 9 5 5 -4 11 0 14 6
3 9 10 6 22 -10 9 -12 21 -20 26 -17 5 4 9 1 9 -4 0 -6 5 -11 11 -11 7 0 4 11
-6 26 -17 26 -17 27 4 21 11 -3 21 -1 21 4 0 5 -17 9 -38 9 -21 0 -42 3 -46 7
-3 4 -13 8 -20 9 -12 2 -14 -26 -14 -147z m23 51 c3 -5 1 -10 -4 -10 -6 0 -11
5 -11 10 0 6 2 10 4 10 3 0 8 -4 11 -10z m10 -60 c3 -5 2 -10 -4 -10 -5 0 -13
5 -16 10 -3 6 -2 10 4 10 5 0 13 -4 16 -10z m10 -50 c11 -5 14 -9 7 -9 -7 -1
-10 -5 -7 -11 9 -15 -4 -12 -21 4 -25 26 -17 32 21 16z m-20 -50 c3 -5 1 -10
-4 -10 -6 0 -11 5 -11 10 0 6 2 10 4 10 3 0 8 -4 11 -10z m18 -61 c-8 -8 -13
-7 -18 2 -5 8 -4 10 3 5 7 -4 12 -2 12 5 0 7 3 9 7 6 4 -4 2 -12 -4 -18z m2
-189 c3 -5 1 -10 -4 -10 -6 0 -11 5 -11 10 0 6 2 10 4 10 3 0 8 -4 11 -10z
m-15 -30 c0 -5 -2 -10 -4 -10 -3 0 -8 5 -11 10 -3 6 -1 10 4 10 6 0 11 -4 11
-10z m50 -20 c0 -5 -7 -7 -15 -4 -8 4 -15 8 -15 10 0 2 7 4 15 4 8 0 15 -4 15
-10z m-35 -28 c-3 -3 -11 0 -18 7 -9 10 -8 11 6 5 10 -3 15 -9 12 -12z m1
-150 c-4 -3 -14 2 -24 12 -16 18 -16 18 6 6 13 -6 21 -14 18 -18z m8 -130 c13
-7 -15 -21 -31 -15 -7 3 -13 11 -13 19 0 12 17 11 44 -4z m-4 -78 c0 -14 -3
-15 -17 -3 -10 7 -20 15 -22 16 -2 2 5 3 17 3 14 0 22 -6 22 -16z m0 -39 c0
-7 -30 -13 -34 -7 -3 4 4 9 15 9 10 1 19 0 19 -2z m0 -35 c0 -5 -2 -10 -4 -10
-3 0 -8 5 -11 10 -3 6 -1 10 4 10 6 0 11 -4 11 -10z m20 -140 c0 -5 -4 -10
-10 -10 -5 0 -10 5 -10 10 0 6 5 10 10 10 6 0 10 -4 10 -10z m-45 -30 c3 -5 1
-10 -4 -10 -6 0 -11 5 -11 10 0 6 2 10 4 10 3 0 8 -4 11 -10z m36 -45 c5 4 9
1 9 -4 0 -15 -27 -14 -33 2 -2 6 -1 19 2 27 4 11 7 9 9 -8 2 -12 8 -20 13 -17z
m-16 -95 c3 -5 1 -10 -4 -10 -6 0 -11 5 -11 10 0 6 2 10 4 10 3 0 8 -4 11 -10z
m0 -98 c-3 -3 -11 0 -18 7 -9 10 -8 11 6 5 10 -3 15 -9 12 -12z m35 -26 c-7
-7 -14 -6 -21 1 -9 9 -7 12 9 10 14 -1 18 -5 12 -11z m-32 -61 c2 -2 -1 -6 -6
-9 -5 -3 -18 4 -28 16 -19 21 -19 21 6 8 14 -7 26 -14 28 -15z"/>
<path d="M26390 2110 c0 -5 5 -10 10 -10 6 0 10 5 10 10 0 6 -4 10 -10 10 -5
0 -10 -4 -10 -10z"/>
<path d="M26381 1869 c24 -21 34 -25 24 -9 -3 6 -1 10 6 10 22 0 0 13 -27 16
l-26 3 23 -20z"/>
<path d="M26357 1829 c7 -7 15 -10 18 -7 3 3 -2 9 -12 12 -14 6 -15 5 -6 -5z"/>
<path d="M26290 872 c0 -71 20 -118 45 -108 9 3 13 -2 12 -14 -1 -19 -2 -19
-22 0 -12 11 -24 20 -28 20 -8 0 -3 -51 6 -67 4 -6 1 -13 -5 -16 -10 -3 -10
-9 0 -27 9 -15 10 -25 3 -29 -8 -5 -9 -177 -1 -211 1 -3 1 -35 0 -73 -1 -53 2
-68 14 -73 9 -3 16 -11 16 -16 0 -6 -6 -6 -14 2 -12 9 -15 8 -13 -10 1 -12 7
-20 17 -18 8 1 21 -1 28 -5 7 -5 12 -3 12 3 0 6 4 9 10 5 5 -3 2 -13 -8 -24
-15 -15 -20 -15 -38 -4 -21 13 -21 12 -23 -92 -1 -65 2 -105 9 -106 5 0 24 -1
40 -1 53 0 58 2 63 22 3 12 -1 24 -11 29 -13 8 -14 12 -3 25 11 13 10 18 -3
31 -9 9 -16 22 -16 28 0 8 3 8 9 -1 7 -11 9 -11 14 2 4 9 -1 17 -13 21 -10 3
-21 12 -24 21 -4 12 -2 12 14 4 13 -7 21 -7 26 2 4 6 3 8 -4 4 -6 -3 -13 -2
-17 4 -3 5 0 10 7 10 7 0 -2 14 -19 31 -41 37 -42 43 -4 21 37 -21 54 -7 22
19 -13 10 -19 19 -14 19 5 0 15 -6 22 -12 11 -11 12 -7 6 19 -5 28 -4 32 9 27
21 -8 20 5 -1 28 -9 11 -11 18 -5 18 7 0 12 5 12 11 0 5 -4 7 -10 4 -6 -4 -7
2 -1 18 6 16 6 28 -2 36 -8 8 -8 11 2 11 10 0 9 6 -3 25 -9 14 -14 30 -11 34
3 5 -1 11 -7 14 -10 3 -9 9 4 23 16 16 16 18 0 31 -16 12 -15 13 3 7 19 -5 19
-5 3 9 -22 18 -23 28 -3 21 11 -5 13 -2 9 10 -4 11 -1 16 10 16 21 0 21 26 -1
34 -14 6 -15 9 -3 16 11 7 11 11 1 24 -8 9 -10 16 -6 16 3 0 -8 14 -25 31 -32
32 -34 52 -3 28 10 -7 15 -10 11 -5 -4 5 -1 21 8 37 11 22 12 29 2 29 -9 0 -8
3 2 10 13 8 12 11 -5 24 -11 9 -26 16 -32 16 -7 0 -13 5 -13 10 0 6 -5 10 -11
10 -5 0 -7 -4 -4 -10 3 -5 2 -10 -3 -10 -6 0 -12 7 -16 15 -13 36 -26 11 -26
-53z m80 -32 c0 -5 -2 -10 -4 -10 -3 0 -8 5 -11 10 -3 6 -1 10 4 10 6 0 11 -4
11 -10z m34 -412 c-3 -4 -11 -5 -19 -1 -21 7 -19 12 4 10 11 0 18 -5 15 -9z
m-49 -118 c8 -13 -15 -13 -35 0 -12 8 -11 10 7 10 12 0 25 -4 28 -10z m-27
-175 c-3 -3 -9 2 -12 12 -6 14 -5 15 5 6 7 -7 10 -15 7 -18z m22 -15 c0 -5 -5
-10 -11 -10 -5 0 -7 5 -4 10 3 6 8 10 11 10 2 0 4 -4 4 -10z m28 -68 c2 -7 -2
-10 -12 -6 -9 3 -16 11 -16 16 0 13 23 5 28 -10z m-33 -30 c-3 -3 -11 0 -18 7
-9 10 -8 11 6 5 10 -3 15 -9 12 -12z"/>
</g>
</svg>
